<mxfile host="app.diagrams.net" modified="2023-06-20T13:53:15.068Z" agent="Mozilla/5.0 (Windows NT 10.0; Win64; x64) AppleWebKit/537.36 (KHTML, like Gecko) Chrome/114.0.0.0 Safari/537.36" etag="zqNH6cUwh1JSS8IFcasj" version="21.5.0" type="github">
  <diagram name="Página-1" id="wNXeGH4fZah2RQlRy1vz">
    <mxGraphModel dx="1434" dy="788" grid="1" gridSize="10" guides="1" tooltips="1" connect="1" arrows="1" fold="1" page="1" pageScale="1" pageWidth="1169" pageHeight="827" math="0" shadow="0">
      <root>
        <mxCell id="0" />
        <mxCell id="1" parent="0" />
        <mxCell id="RlVddvzljJjLgx4jq2bF-7" value="" style="html=1;points=[];perimeter=orthogonalPerimeter;outlineConnect=0;targetShapes=umlLifeline;portConstraint=eastwest;newEdgeStyle={&quot;edgeStyle&quot;:&quot;elbowEdgeStyle&quot;,&quot;elbow&quot;:&quot;vertical&quot;,&quot;curved&quot;:0,&quot;rounded&quot;:0};hachureGap=4;fontFamily=Architects Daughter;fontSource=https%3A%2F%2Ffonts.googleapis.com%2Fcss%3Ffamily%3DArchitects%2BDaughter;fontSize=20;rounded=1;strokeWidth=1;fillColor=#B3B3B3;strokeColor=#B3B3B3;fillStyle=cross-hatch;sketch=1;curveFitting=1;jiggle=2;" parent="1" vertex="1">
          <mxGeometry x="580" y="190" width="10" height="620" as="geometry" />
        </mxCell>
        <mxCell id="G4BJERYl0tAt1eUm3QgO-1" value="&lt;div style=&quot;border-color: var(--border-color);&quot;&gt;Téc. Informática para Internet&lt;/div&gt;&lt;div style=&quot;border-color: var(--border-color);&quot;&gt;&lt;span style=&quot;border-color: var(--border-color); background-color: initial;&quot;&gt;Gabriela Lessa&lt;/span&gt;&lt;/div&gt;&lt;div style=&quot;border-color: var(--border-color);&quot;&gt;&lt;span style=&quot;border-color: var(--border-color); background-color: initial;&quot;&gt;3º Módulo&lt;/span&gt;&lt;/div&gt;" style="shape=note2;boundedLbl=1;whiteSpace=wrap;html=1;size=25;verticalAlign=middle;align=center;hachureGap=4;fontFamily=Architects Daughter;fontSource=https%3A%2F%2Ffonts.googleapis.com%2Fcss%3Ffamily%3DArchitects%2BDaughter;fontSize=20;fillColor=#E6E6E6;rounded=0;fontColor=#4D4D4D;strokeColor=#4D4D4D;fillStyle=hachure;sketch=1;curveFitting=1;jiggle=2;labelBorderColor=none;" parent="1" vertex="1">
          <mxGeometry x="750" y="30" width="350" height="90" as="geometry" />
        </mxCell>
        <mxCell id="G4BJERYl0tAt1eUm3QgO-2" value="ADMIN" style="html=1;align=center;verticalAlign=middle;rounded=1;absoluteArcSize=1;arcSize=10;dashed=0;whiteSpace=wrap;sketch=1;hachureGap=4;jiggle=2;curveFitting=1;fontFamily=Architects Daughter;fontSource=https%3A%2F%2Ffonts.googleapis.com%2Fcss%3Ffamily%3DArchitects%2BDaughter;fontSize=20;fillColor=#E6E6E6;fillStyle=hachure;fontStyle=1" parent="1" vertex="1">
          <mxGeometry x="200" y="155" width="140" height="40" as="geometry" />
        </mxCell>
        <mxCell id="G4BJERYl0tAt1eUm3QgO-3" value="SISTEMA" style="html=1;align=center;verticalAlign=middle;rounded=1;absoluteArcSize=1;arcSize=10;dashed=0;whiteSpace=wrap;sketch=1;hachureGap=4;jiggle=2;curveFitting=1;fontFamily=Architects Daughter;fontSource=https%3A%2F%2Ffonts.googleapis.com%2Fcss%3Ffamily%3DArchitects%2BDaughter;fontSize=20;fillColor=#E6E6E6;fillStyle=hachure;fontStyle=1" parent="1" vertex="1">
          <mxGeometry x="830" y="155" width="140" height="40" as="geometry" />
        </mxCell>
        <mxCell id="G4BJERYl0tAt1eUm3QgO-13" style="edgeStyle=orthogonalEdgeStyle;rounded=0;sketch=1;hachureGap=4;jiggle=2;curveFitting=1;orthogonalLoop=1;jettySize=auto;html=1;entryX=1;entryY=0.5;entryDx=0;entryDy=0;fontFamily=Architects Daughter;fontSource=https%3A%2F%2Ffonts.googleapis.com%2Fcss%3Ffamily%3DArchitects%2BDaughter;fontSize=16;" parent="1" source="G4BJERYl0tAt1eUm3QgO-4" target="G4BJERYl0tAt1eUm3QgO-12" edge="1">
          <mxGeometry relative="1" as="geometry" />
        </mxCell>
        <mxCell id="G4BJERYl0tAt1eUm3QgO-4" value="" style="ellipse;fillColor=strokeColor;html=1;sketch=1;hachureGap=4;jiggle=2;curveFitting=1;fontFamily=Architects Daughter;fontSource=https%3A%2F%2Ffonts.googleapis.com%2Fcss%3Ffamily%3DArchitects%2BDaughter;fontSize=20;strokeColor=#FF3333;" parent="1" vertex="1">
          <mxGeometry x="1080" y="250" width="30" height="30" as="geometry" />
        </mxCell>
        <mxCell id="G4BJERYl0tAt1eUm3QgO-10" value="Selecionar&lt;br&gt;Pedido" style="rounded=1;whiteSpace=wrap;html=1;sketch=1;hachureGap=4;jiggle=2;curveFitting=1;fontFamily=Architects Daughter;fontSource=https%3A%2F%2Ffonts.googleapis.com%2Fcss%3Ffamily%3DArchitects%2BDaughter;fontSize=20;fillColor=none;" parent="1" vertex="1">
          <mxGeometry x="370" y="235" width="120" height="60" as="geometry" />
        </mxCell>
        <mxCell id="G4BJERYl0tAt1eUm3QgO-12" value="Listar Pedidos" style="rounded=1;whiteSpace=wrap;html=1;sketch=1;hachureGap=4;jiggle=2;curveFitting=1;fontFamily=Architects Daughter;fontSource=https%3A%2F%2Ffonts.googleapis.com%2Fcss%3Ffamily%3DArchitects%2BDaughter;fontSize=20;fillColor=none;" parent="1" vertex="1">
          <mxGeometry x="850" y="235" width="120" height="60" as="geometry" />
        </mxCell>
      </root>
    </mxGraphModel>
  </diagram>
</mxfile>
